PathFileType	4	(X/Y/Z)	C:/ViconProjects/foot_20160225/trc/P_3_test01_dynamic.trc
DataRate	CameraRate	NumFrames	NumMarkers	Units	OrigDataRate	OrigDataStartFrame	OrigNumFrames
120.000000	120.000000	4	39	mm	120.000000	489	1954
Frame#	Time	LFWT			RFWT			VBWT			LKNE			LANK			LMT5			LMT1			LHEL			LTOE			RKNE			RANK			RMT5			RMT1			RHEL			RTOE			T10			FHEAD			THEAD			RHEAD			LBSH			LELB			LOWR			RBSH			RELB			ROWR			LTHI			RTHI			LSHAN			RSHAN			LIHEL			LOHEL			RIHEL			ROHEL			LMT3			LNAVI			LCUNE			RMT3			RNAVI			RCUNE			
		X0	Y0	Z0	X1	Y1	Z1	X2	Y2	Z2	X3	Y3	Z3	X4	Y4	Z4	X5	Y5	Z5	X6	Y6	Z6	X7	Y7	Z7	X8	Y8	Z8	X9	Y9	Z9	X10	Y10	Z10	X11	Y11	Z11	X12	Y12	Z12	X13	Y13	Z13	X14	Y14	Z14	X15	Y15	Z15	X16	Y16	Z16	X17	Y17	Z17	X18	Y18	Z18	X19	Y19	Z19	X20	Y20	Z20	X21	Y21	Z21	X22	Y22	Z22	X23	Y23	Z23	X24	Y24	Z24	X25	Y25	Z25	X26	Y26	Z26	X27	Y27	Z27	X28	Y28	Z28	X29	Y29	Z29	X30	Y30	Z30	X31	Y31	Z31	X32	Y32	Z32	X33	Y33	Z33	X34	Y34	Z34	X35	Y35	Z35	X36	Y36	Z36	X37	Y37	Z37	X38	Y38	Z38	
489	4.075000	-300.250370	168.373840	945.007320	-318.986300	-119.573500	948.610780	-534.720210	41.799950	954.887210	-338.247590	176.199580	466.429840	-402.126860	167.875370	59.688880	-299.680480	189.268800	35.812970	-251.912870	113.591400	43.930050	-467.084140	112.875290	39.867720	-215.449340	120.138310	32.466270	-358.676970	-147.676380	467.828160	-405.820100	-161.183870	72.104110	-299.060640	-191.261860	33.182990	-252.355850	-110.711920	45.896540	-466.639800	-96.149380	40.508240	-210.028120	-125.905090	34.157810	-478.030360	103.954310	1297.957760	-82.378530	15.979550	1547.935180	-146.942020	16.340640	1671.870610	-274.672880	25.253500	1655.058230	-283.760130	234.119380	1418.461790	-318.516630	327.335110	1093.133790	-212.737000	293.045230	862.158810	-313.914550	-168.584060	1410.408940	-368.664490	-263.495540	1086.307860	-242.903730	-251.249540	857.670840	-260.011570	120.803080	626.661740	-281.924220	-100.301610	576.357420	-332.250520	98.826870	324.526210	-347.634220	-85.399720	233.865160	-429.891450	79.291180	40.787990	-438.644780	151.588610	38.365530	-424.115690	-68.885090	41.818930	-439.220120	-141.825700	40.603630	-260.372310	152.825560	39.231020	-349.192720	75.567310	48.060050	-363.865940	177.196290	31.809800	-259.306460	-147.446290	38.491290	-349.870700	-72.771240	54.391930	-364.370910	-171.972780	33.533950
490	4.083333	-300.255310	167.835950	945.112120	-318.521030	-120.202250	948.685790	-534.399540	41.060840	954.867980	-338.968320	175.695370	466.474950	-402.016420	167.846070	59.707250	-299.761990	189.226560	35.894650	-251.936570	113.607890	43.985770	-467.054570	112.848270	39.884580	-215.486150	120.196210	32.512360	-358.589570	-147.884340	467.718020	-405.840790	-161.242830	72.140450	-299.020260	-191.321320	33.197910	-252.330860	-110.699070	45.914800	-466.647610	-96.179920	40.468330	-210.040220	-125.924210	34.145010	-477.249020	102.935660	1298.216060	-81.198010	14.897420	1547.774410	-145.734880	15.046690	1671.670650	-273.305880	23.786510	1655.131230	-283.954380	233.186970	1418.565920	-320.814880	327.248260	1094.065550	-216.152530	295.151860	862.000060	-313.628970	-169.725300	1410.265750	-372.180420	-265.986390	1087.343380	-249.241780	-254.420170	857.001220	-260.093690	120.130800	626.691280	-281.889280	-100.091960	576.518920	-332.347110	98.767900	324.601040	-347.669890	-85.523670	233.716230	-429.837740	79.319050	40.834380	-438.653990	151.598890	38.397280	-424.096250	-68.908940	41.773380	-439.216830	-141.820800	40.575510	-260.366730	152.859440	39.263420	-349.233760	75.580280	48.171080	-363.868770	177.206820	31.876630	-259.295500	-147.442860	38.526370	-349.866970	-72.758480	54.340060	-364.351930	-171.982450	33.575260
491	4.091667	-300.093230	167.064270	945.118100	-318.095760	-121.057920	948.519530	-534.235840	40.160370	955.074710	-339.354160	175.224910	466.371460	-402.007140	167.813340	59.735490	-299.702000	189.367420	35.912300	-252.028230	113.657010	44.019560	-467.106290	112.894040	39.864150	-215.519420	120.207310	32.512100	-358.318360	-148.121870	467.639590	-405.799470	-161.224950	72.009380	-299.018520	-191.300220	33.207410	-252.369690	-110.626590	45.952110	-466.690950	-96.247920	40.399640	-210.068570	-125.954220	34.141690	-476.420590	101.939700	1298.595210	-80.441640	13.755840	1547.359250	-145.159150	13.841620	1671.148800	-272.523710	22.813340	1655.143430	-282.553620	231.525880	1418.928470	-322.345920	327.668880	1094.820920	-219.676330	297.199650	861.687380	-312.980260	-170.881770	1410.166990	-375.460570	-268.197240	1088.566770	-255.685240	-257.606690	856.630550	-260.978090	119.314550	626.386720	-281.522740	-99.815350	576.767330	-332.402470	98.728520	324.652220	-347.756470	-85.613630	233.634860	-429.883850	79.319520	40.842930	-438.610870	151.620860	38.384250	-424.214290	-68.919020	41.769350	-439.268590	-141.859760	40.547300	-260.305760	152.852870	39.296610	-349.260890	75.592450	48.230370	-363.972110	177.286300	31.871010	-259.318540	-147.482590	38.473360	-349.874270	-72.792700	54.342290	-364.418240	-172.014360	33.619970
492	4.100000	-299.726140	166.311570	945.187320	-317.841740	-121.494690	948.394170	-533.475950	39.442240	954.919860	-339.774020	174.785660	466.438050	-401.953250	167.804180	59.718710	-299.755830	189.327130	35.952500	-252.084170	113.669980	44.040080	-467.096620	112.912030	39.872370	-215.580960	120.234470	32.522560	-357.742370	-148.459230	467.620540	-405.774200	-161.224840	71.953200	-299.021240	-191.294660	33.197490	-252.368640	-110.657430	45.904580	-466.694120	-96.323600	40.413700	-210.069500	-125.957270	34.123480	-475.729740	100.738520	1298.688480	-79.733220	12.228910	1547.006100	-143.576970	12.358140	1671.178220	-271.049960	21.334910	1655.082760	-282.294010	230.845870	1419.156370	-324.212590	327.313390	1095.657710	-223.446210	298.937190	861.566470	-312.529330	-171.885210	1410.041020	-378.674010	-270.224850	1089.507200	-261.888790	-260.456910	855.704530	-260.950290	118.765670	626.349300	-281.512050	-99.728070	576.816770	-332.525300	98.677810	324.748050	-347.807190	-85.645240	233.570720	-429.891720	79.336320	40.848950	-438.599640	151.625170	38.369660	-424.150760	-68.934310	41.723270	-439.162140	-141.924450	40.494630	-260.327480	152.837460	39.283900	-349.311370	75.647740	48.315320	-363.832490	177.290600	31.871140	-259.326480	-147.404800	38.528680	-349.909520	-72.745950	54.347710	-364.494230	-172.028000	33.602420
